<?xml version="1.0" ?><!DOCTYPE svg  PUBLIC '-//W3C//DTD SVG 1.1//EN'  'http://www.w3.org/Graphics/SVG/1.1/DTD/svg11.dtd'><svg enable-background="new 0 0 512 512" height="512px" id="Layer_1" version="1.1" viewBox="0 0 512 512" width="512px" xml:space="preserve" xmlns="http://www.w3.org/2000/svg" xmlns:xlink="http://www.w3.org/1999/xlink"><g><path d="M400,64H112c-35.344,0-64,28.656-64,64v288c0,35.344,28.656,64,64,64h288c35.344,0,64-28.656,64-64V128   C464,92.656,435.344,64,400,64z M232,352h108.805c17.672,0,32,14.328,32,32s-14.328,32-32,32H208c-39.766,0-64-24.234-64-64   V155.195c0-17.672,14.328-32,32-32s32,14.328,32,32V192h132.805c17.672,0,32,14.328,32,32s-14.328,32-32,32H208v72   C208,341.258,218.742,352,232,352z" fill="#4D4D4D"/></g></svg>